<?xml version="1.0" encoding="UTF-8"?>
<!DOCTYPE svg PUBLIC "-//W3C//DTD SVG 1.1//EN" "http://www.w3.org/Graphics/SVG/1.1/DTD/svg11.dtd">
<!-- Creator: CorelDRAW 2017 -->
<svg xmlns="http://www.w3.org/2000/svg" xml:space="preserve" width="160px" height="35px" version="1.1" style="shape-rendering:geometricPrecision; text-rendering:geometricPrecision; image-rendering:optimizeQuality; fill-rule:evenodd; clip-rule:evenodd"
viewBox="0 0 167.789 36.704"
 xmlns:xlink="http://www.w3.org/1999/xlink">
 <defs>
  <style type="text/css">
   <![CDATA[
    .fil3 {fill:none}
    .fil2 {fill:#888888}
    .fil0 {fill:#9C5789}
    .fil1 {fill:#888888;fill-rule:nonzero}
   ]]>
  </style>
 </defs>
 <g id="Слой_x0020_1">
  <metadata id="CorelCorpID_0Corel-Layer"/>
  <path id="Oval-1" class="fil0" d="M79.814 26.706c4.552,0 8.243,-3.69 8.243,-8.243 0,-4.552 -3.691,-8.242 -8.243,-8.242 -4.552,0 -8.243,3.69 -8.243,8.242 0,4.553 3.691,8.243 8.243,8.243zm-0.076 -3.351c2.684,0 4.859,-2.175 4.859,-4.859 0,-2.683 -2.175,-4.858 -4.859,-4.858 -2.683,0 -4.858,2.175 -4.858,4.858 0,2.684 2.175,4.859 4.858,4.859z"/>
  <path class="fil1" d="M15.252 26.712c-1.686,0 -3.135,-0.628 -4.347,-1.883 -1.212,-1.256 -1.817,-2.718 -1.817,-4.386 0,-1.669 0.614,-3.113 1.843,-4.334 1.23,-1.22 2.709,-1.83 4.439,-1.83 1.73,0 3.205,0.61 4.425,1.83 1.221,1.221 1.831,2.67 1.831,4.347 0,1.677 -0.597,3.139 -1.791,4.386 -1.194,1.247 -2.643,1.87 -4.346,1.87l-0.237 0zm5.531 -6.204c0,-1.483 -0.531,-2.77 -1.593,-3.858 -1.063,-1.089 -2.332,-1.634 -3.807,-1.634 -1.475,0 -2.752,0.549 -3.832,1.647 -1.081,1.097 -1.621,2.384 -1.621,3.859 0,1.475 0.54,2.752 1.621,3.832 1.08,1.08 2.361,1.62 3.845,1.62 1.484,0 2.753,-0.54 3.807,-1.62 1.053,-1.08 1.58,-2.362 1.58,-3.846zm3.346 11.183l0 -17.122 0.842 0 0 2.897c0.475,-0.966 1.217,-1.738 2.226,-2.318 1.01,-0.579 2.059,-0.869 3.148,-0.869 1.739,0 3.218,0.61 4.439,1.83 1.22,1.221 1.83,2.683 1.83,4.386 0,1.704 -0.61,3.166 -1.83,4.386 -1.221,1.221 -2.7,1.831 -4.439,1.831 -1.053,0 -2.081,-0.285 -3.082,-0.856 -1.001,-0.571 -1.765,-1.339 -2.292,-2.305l0 8.14 -0.842 0zm0.79 -11.169c0,1.475 0.54,2.752 1.62,3.832 1.08,1.08 2.362,1.62 3.846,1.62 1.484,0 2.752,-0.54 3.806,-1.62 1.054,-1.08 1.581,-2.362 1.581,-3.846 0,-1.483 -0.532,-2.77 -1.594,-3.858 -1.063,-1.089 -2.331,-1.634 -3.806,-1.634 -1.476,0 -2.753,0.549 -3.833,1.647 -1.08,1.097 -1.62,2.384 -1.62,3.859zm20.125 6.216l-0.237 0c-1.668,0 -3.122,-0.627 -4.36,-1.883 -1.238,-1.256 -1.857,-2.718 -1.857,-4.386 0,-1.668 0.615,-3.113 1.844,-4.333 1.229,-1.221 2.748,-1.831 4.557,-1.831 1.809,0 3.363,0.72 4.663,2.16l-8.272 8.166c1.142,0.913 2.239,1.37 3.293,1.37 1.054,0 1.998,-0.242 2.832,-0.725 0.834,-0.482 1.523,-1.128 2.068,-1.936l0 1.344c-1.247,1.37 -2.757,2.054 -4.531,2.054zm-0.277 -11.695c-1.396,0 -2.634,0.54 -3.714,1.62 -1.08,1.08 -1.62,2.322 -1.62,3.727 0,1.405 0.465,2.634 1.396,3.688l7.666 -7.613c-1.089,-0.948 -2.332,-1.422 -3.728,-1.422zm8.232 11.379l-0.843 0 0 -11.853 0.843 0 0 2.397c0.896,-1.792 2.423,-2.687 4.583,-2.687 1.476,0 2.714,0.509 3.715,1.527 1.001,1.019 1.501,2.257 1.501,3.715l0 6.901 -0.843 0 0 -6.901c0,-1.212 -0.426,-2.266 -1.277,-3.161 -0.852,-0.896 -1.884,-1.344 -3.096,-1.344 -1.211,0 -2.278,0.448 -3.2,1.344 -0.922,0.895 -1.383,1.949 -1.383,3.161l0 6.901z"/>
  <path class="fil0" d="M79.814 26.706c-4.552,0 -8.243,-3.69 -8.243,-8.243 0,-4.552 3.691,-8.242 8.243,-8.242 4.552,0 8.243,3.69 8.243,8.242 0,4.553 -3.691,8.243 -8.243,8.243zm0 -13.133c2.701,0 4.891,2.189 4.891,4.89 0,2.702 -2.19,4.891 -4.891,4.891 -2.701,0 -4.891,-2.189 -4.891,-4.891 0,-2.701 2.19,-4.89 4.891,-4.89z"/>
  <path class="fil2" d="M96.893 26.706c-4.552,0 -8.242,-3.69 -8.242,-8.243 0,-4.552 3.69,-8.242 8.242,-8.242 1.88,0 3.612,0.629 4.999,1.689l0 -5.274c0,-0.896 0.727,-1.623 1.623,-1.623 0.896,0 1.623,0.727 1.623,1.623 0,0.986 -0.002,10.643 -0.002,11.846 -0.01,4.544 -3.696,8.224 -8.243,8.224zm0 -13.133c2.701,0 4.891,2.189 4.891,4.89 0,2.702 -2.19,4.891 -4.891,4.891 -2.701,0 -4.89,-2.189 -4.89,-4.891 0,-2.701 2.189,-4.89 4.89,-4.89z"/>
  <path class="fil2" d="M114.129 26.706c-4.553,0 -8.243,-3.69 -8.243,-8.243 0,-4.552 3.69,-8.242 8.243,-8.242 4.552,0 8.242,3.69 8.242,8.242 0,4.553 -3.69,8.243 -8.242,8.243zm0 -13.133c2.701,0 4.891,2.189 4.891,4.89 0,2.702 -2.19,4.891 -4.891,4.891 -2.701,0 -4.891,-2.189 -4.891,-4.891 0,-2.701 2.19,-4.89 4.891,-4.89z"/>
  <path class="fil2" d="M131.597 26.706c-4.553,0 -8.243,-3.69 -8.243,-8.243 0,-4.552 3.69,-8.242 8.243,-8.242 4.552,0 8.242,3.69 8.242,8.242 0,4.553 -3.69,8.243 -8.242,8.243zm0 -13.133c2.701,0 4.89,2.189 4.89,4.89 0,2.702 -2.189,4.891 -4.89,4.891 -2.701,0 -4.891,-2.189 -4.891,-4.891 0,-2.701 2.19,-4.89 4.891,-4.89z"/>
  <path class="fil1" d="M141.503 26.627c-0.454,0 -0.681,-0.204 -0.681,-0.612 0,-0.408 0.227,-0.611 0.681,-0.611 0.454,0 0.681,0.203 0.681,0.611 0,0.408 -0.227,0.612 -0.681,0.612zm7.746 -7.815c-0.579,-0.579 -1.217,-0.868 -1.915,-0.868 -0.697,0 -1.312,0.263 -1.845,0.789 -0.533,0.526 -0.799,1.138 -0.799,1.835l0 5.921 -0.632 0 0 -8.881 0.632 0 0 1.323c0.237,-0.448 0.605,-0.816 1.105,-1.106 0.5,-0.289 1.059,-0.434 1.678,-0.434 0.618,0 1.21,0.211 1.776,0.632l0 0.789zm8.821 -1.204l0.632 0 0 8.881 -0.632 0 0 -1.796c-0.671,1.342 -1.815,2.013 -3.434,2.013 -1.105,0 -2.032,-0.381 -2.782,-1.145 -0.75,-0.763 -1.125,-1.69 -1.125,-2.782l0 -5.171 0.631 0 0 5.171c0,0.908 0.319,1.697 0.958,2.368 0.638,0.671 1.411,1.007 2.318,1.007 0.908,0 1.707,-0.336 2.398,-1.007 0.691,-0.671 1.036,-1.46 1.036,-2.368l0 -5.171z"/>
  <rect class="fil3" width="167.789" height="36.704"/>
 </g>
</svg>
