<svg xmlns="http://www.w3.org/2000/svg" xmlns:xlink="http://www.w3.org/1999/xlink"><defs><style>
    .sprite-symbol-usage {display: none;}
    .sprite-symbol-usage:target {display: inline;}
  </style><symbol viewBox="0 0 24 24" id="answer"><path d="M21 6h-2v9H6v2c0 .55.45 1 1 1h11l4 4V7c0-.55-.45-1-1-1zm-4 6V3c0-.55-.45-1-1-1H3c-.55 0-1 .45-1 1v14l4-4h10c.55 0 1-.45 1-1z" /></symbol><symbol viewBox="0 0 24 24" id="arrow-down"><path d="M7.41 7.84L12 12.42l4.59-4.58L18 9.25l-6 6-6-6z" /></symbol><symbol viewBox="0 0 24 24" id="arrow-up"><path d="M7.41 15.41L12 10.83l4.59 4.58L18 14l-6-6-6 6z" /></symbol><symbol viewBox="0 0 24 24" id="cached"><path d="M19 8l-4 4h3c0 3.31-2.69 6-6 6a5.87 5.87 0 0 1-2.8-.7l-1.46 1.46A7.93 7.93 0 0 0 12 20c4.42 0 8-3.58 8-8h3l-4-4zM6 12c0-3.31 2.69-6 6-6 1.01 0 1.97.25 2.8.7l1.46-1.46A7.93 7.93 0 0 0 12 4c-4.42 0-8 3.58-8 8H1l4 4 4-4H6z" /></symbol><symbol viewBox="0 0 24 24" id="chat"><path d="M20 2H4c-1.1 0-1.99.9-1.99 2L2 22l4-4h14c1.1 0 2-.9 2-2V4c0-1.1-.9-2-2-2zM6 9h12v2H6V9zm8 5H6v-2h8v2zm4-6H6V6h12v2z" /></symbol><symbol viewBox="0 0 24 24" id="check"><path d="M12 2C6.48 2 2 6.48 2 12s4.48 10 10 10 10-4.48 10-10S17.52 2 12 2zm-2 15l-5-5 1.41-1.41L10 14.17l7.59-7.59L19 8l-9 9z" /></symbol><symbol viewBox="0 0 24 24" id="close"><path d="M19 6.41L17.59 5 12 10.59 6.41 5 5 6.41 10.59 12 5 17.59 6.41 19 12 13.41 17.59 19 19 17.59 13.41 12z" /></symbol><symbol viewBox="0 0 24 24" id="comment"><path d="M21.99 4c0-1.1-.89-2-1.99-2H4c-1.1 0-2 .9-2 2v12c0 1.1.9 2 2 2h14l4 4-.01-18z" /></symbol><symbol viewBox="0 0 24 24" id="date"><path d="M9 11H7v2h2v-2zm4 0h-2v2h2v-2zm4 0h-2v2h2v-2zm2-7h-1V2h-2v2H8V2H6v2H5c-1.11 0-1.99.9-1.99 2L3 20a2 2 0 0 0 2 2h14c1.1 0 2-.9 2-2V6c0-1.1-.9-2-2-2zm0 16H5V9h14v11z" /></symbol><symbol viewBox="0 0 24 24" id="delete"><path d="M6 19c0 1.1.9 2 2 2h8c1.1 0 2-.9 2-2V7H6v12zM19 4h-3.5l-1-1h-5l-1 1H5v2h14V4z" /></symbol><symbol viewBox="0 0 24 24" id="done"><path d="M9 16.2L4.8 12l-1.4 1.4L9 19 21 7l-1.4-1.4L9 16.2z" /></symbol><symbol viewBox="0 0 24 24" id="edit"><path d="M3 17.25V21h3.75L17.81 9.94l-3.75-3.75L3 17.25zM20.71 7.04a.996.996 0 0 0 0-1.41l-2.34-2.34a.996.996 0 0 0-1.41 0l-1.83 1.83 3.75 3.75 1.83-1.83z" /></symbol><symbol viewBox="0 0 24 24" id="eye"><path d="M12 4.5C7 4.5 2.73 7.61 1 12c1.73 4.39 6 7.5 11 7.5s9.27-3.11 11-7.5c-1.73-4.39-6-7.5-11-7.5zM12 17c-2.76 0-5-2.24-5-5s2.24-5 5-5 5 2.24 5 5-2.24 5-5 5zm0-8c-1.66 0-3 1.34-3 3s1.34 3 3 3 3-1.34 3-3-1.34-3-3-3z" /></symbol><symbol viewBox="0 0 24 24" id="forum"><path d="M21 6h-2v9H6v2c0 .55.45 1 1 1h11l4 4V7c0-.55-.45-1-1-1zm-4 6V3c0-.55-.45-1-1-1H3c-.55 0-1 .45-1 1v14l4-4h10c.55 0 1-.45 1-1z" /></symbol><symbol viewBox="0 0 24 24" id="home"><path d="M10 20v-6h4v6h5v-8h3L12 3 2 12h3v8z" /></symbol><symbol viewBox="0 0 24 24" id="link"><path d="M3.9 12c0-1.71 1.39-3.1 3.1-3.1h4V7H7c-2.76 0-5 2.24-5 5s2.24 5 5 5h4v-1.9H7c-1.71 0-3.1-1.39-3.1-3.1zM8 13h8v-2H8v2zm9-6h-4v1.9h4c1.71 0 3.1 1.39 3.1 3.1s-1.39 3.1-3.1 3.1h-4V17h4c2.76 0 5-2.24 5-5s-2.24-5-5-5z" /></symbol><symbol viewBox="0 0 24 24" id="live-help"><path d="M19 2H5a2 2 0 0 0-2 2v14a2 2 0 0 0 2 2h4l3 3 3-3h4c1.1 0 2-.9 2-2V4c0-1.1-.9-2-2-2zm-6 16h-2v-2h2v2zm2.07-7.75l-.9.92C13.45 11.9 13 12.5 13 14h-2v-.5c0-1.1.45-2.1 1.17-2.83l1.24-1.26c.37-.36.59-.86.59-1.41 0-1.1-.9-2-2-2s-2 .9-2 2H8c0-2.21 1.79-4 4-4s4 1.79 4 4c0 .88-.36 1.68-.93 2.25z" /></symbol><symbol viewBox="0 0 24 24" id="mail"><path d="M20 4H4c-1.1 0-1.99.9-1.99 2L2 18c0 1.1.9 2 2 2h16c1.1 0 2-.9 2-2V6c0-1.1-.9-2-2-2zm0 14H4V8l8 5 8-5v10zm-8-7L4 6h16l-8 5z" /></symbol><symbol viewBox="0 0 24 24" id="menu"><path d="M3 18h18v-2H3v2zm0-5h18v-2H3v2zm0-7v2h18V6H3z" /></symbol><symbol viewBox="0 0 24 24" id="mobile"><path d="M16 1H8C6.34 1 5 2.34 5 4v16c0 1.66 1.34 3 3 3h8c1.66 0 3-1.34 3-3V4c0-1.66-1.34-3-3-3zm-2 20h-4v-1h4v1zm3.25-3H6.75V4h10.5v14z" /></symbol><symbol viewBox="0 0 24 24" id="note-off"><path d="M10.54 11l-.54-.54L7.54 8 6 6.46 2.38 2.84 1.27 1.73 0 3l2.01 2.01L2 22l4-4h9l5.73 5.73L22 22.46 17.54 18l-7-7zM8 14H6v-2h2v2zm-2-3V9l2 2H6zm14-9H4.08L10 7.92V6h8v2h-7.92l1 1H18v2h-4.92l6.99 6.99C21.14 17.95 22 17.08 22 16V4c0-1.1-.9-2-2-2z" /></symbol><symbol viewBox="0 0 24 24" id="note-on"><path d="M20 2H4c-1.1 0-1.99.9-1.99 2L2 22l4-4h14c1.1 0 2-.9 2-2V4c0-1.1-.9-2-2-2zM8 14H6v-2h2v2zm0-3H6V9h2v2zm0-3H6V6h2v2zm7 6h-5v-2h5v2zm3-3h-8V9h8v2zm0-3h-8V6h8v2z" /></symbol><symbol viewBox="0 0 24 24" id="people"><path d="M16 11c1.66 0 2.99-1.34 2.99-3S17.66 5 16 5c-1.66 0-3 1.34-3 3s1.34 3 3 3zm-8 0c1.66 0 2.99-1.34 2.99-3S9.66 5 8 5C6.34 5 5 6.34 5 8s1.34 3 3 3zm0 2c-2.33 0-7 1.17-7 3.5V19h14v-2.5c0-2.33-4.67-3.5-7-3.5zm8 0c-.29 0-.62.02-.97.05 1.16.84 1.97 1.97 1.97 3.45V19h6v-2.5c0-2.33-4.67-3.5-7-3.5z" /></symbol><symbol viewBox="0 0 24 24" id="person"><path d="M12 12c2.21 0 4-1.79 4-4s-1.79-4-4-4-4 1.79-4 4 1.79 4 4 4zm0 2c-2.67 0-8 1.34-8 4v2h16v-2c0-2.66-5.33-4-8-4z" /></symbol><symbol viewBox="0 0 24 24" id="phone"><path d="M6.62 10.79c1.44 2.83 3.76 5.14 6.59 6.59l2.2-2.2c.27-.27.67-.36 1.02-.24 1.12.37 2.33.57 3.57.57.55 0 1 .45 1 1V20c0 .55-.45 1-1 1-9.39 0-17-7.61-17-17 0-.55.45-1 1-1h3.5c.55 0 1 .45 1 1 0 1.25.2 2.45.57 3.57.11.35.03.74-.25 1.02l-2.2 2.2z" /></symbol><symbol viewBox="0 0 24 24" id="place"><path d="M12 2C8.13 2 5 5.13 5 9c0 5.25 7 13 7 13s7-7.75 7-13c0-3.87-3.13-7-7-7zm0 9.5a2.5 2.5 0 0 1 0-5 2.5 2.5 0 0 1 0 5z" /></symbol><symbol viewBox="0 0 24 24" id="question"><path d="M12 2C6.48 2 2 6.48 2 12s4.48 10 10 10 10-4.48 10-10S17.52 2 12 2zm1 17h-2v-2h2v2zm2.07-7.75l-.9.92C13.45 12.9 13 13.5 13 15h-2v-.5c0-1.1.45-2.1 1.17-2.83l1.24-1.26c.37-.36.59-.86.59-1.41 0-1.1-.9-2-2-2s-2 .9-2 2H8c0-2.21 1.79-4 4-4s4 1.79 4 4c0 .88-.36 1.68-.93 2.25z" /></symbol><symbol viewBox="0 0 24 24" id="reply"><path d="M10 9V5l-7 7 7 7v-4.1c5 0 8.5 1.6 11 5.1-1-5-4-10-11-11z" /></symbol><symbol viewBox="0 0 24 24" id="search"><path d="M15.5 14h-.79l-.28-.27A6.471 6.471 0 0 0 16 9.5 6.5 6.5 0 1 0 9.5 16c1.61 0 3.09-.59 4.23-1.57l.27.28v.79l5 4.99L20.49 19l-4.99-5zm-6 0C7.01 14 5 11.99 5 9.5S7.01 5 9.5 5 14 7.01 14 9.5 11.99 14 9.5 14z" /></symbol><symbol viewBox="0 0 24 24" id="section-menu"><path d="M3 15.558h18v-2H3zm0-5h18v-2H3z" /></symbol><symbol viewBox="0 0 24 24" id="share"><path d="M18 16.08c-.76 0-1.44.3-1.96.77L8.91 12.7c.05-.23.09-.46.09-.7s-.04-.47-.09-.7l7.05-4.11c.54.5 1.25.81 2.04.81 1.66 0 3-1.34 3-3s-1.34-3-3-3-3 1.34-3 3c0 .24.04.47.09.7L8.04 9.81C7.5 9.31 6.79 9 6 9c-1.66 0-3 1.34-3 3s1.34 3 3 3c.79 0 1.5-.31 2.04-.81l7.12 4.16c-.05.21-.08.43-.08.65 0 1.61 1.31 2.92 2.92 2.92 1.61 0 2.92-1.31 2.92-2.92s-1.31-2.92-2.92-2.92z" /></symbol><symbol viewBox="0 0 24 24" id="star"><path d="M12 17.27L18.18 21l-1.64-7.03L22 9.24l-7.19-.61L12 2 9.19 8.63 2 9.24l5.46 4.73L5.82 21z" /></symbol><symbol viewBox="0 0 24 24" id="time"><path d="M11.99 2C6.47 2 2 6.48 2 12s4.47 10 9.99 10C17.52 22 22 17.52 22 12S17.52 2 11.99 2zM12 20c-4.42 0-8-3.58-8-8s3.58-8 8-8 8 3.58 8 8-3.58 8-8 8z" /><path d="M12.5 7H11v6l5.25 3.15.75-1.23-4.5-2.67z" /></symbol><symbol viewBox="0 0 24 24" id="warning"><path d="M1 21h22L12 2 1 21zm12-3h-2v-2h2v2zm0-4h-2v-4h2v4z" /></symbol></defs><use id="answer-usage" xlink:href="#answer" class="sprite-symbol-usage" /><use id="arrow-down-usage" xlink:href="#arrow-down" class="sprite-symbol-usage" /><use id="arrow-up-usage" xlink:href="#arrow-up" class="sprite-symbol-usage" /><use id="cached-usage" xlink:href="#cached" class="sprite-symbol-usage" /><use id="chat-usage" xlink:href="#chat" class="sprite-symbol-usage" /><use id="check-usage" xlink:href="#check" class="sprite-symbol-usage" /><use id="close-usage" xlink:href="#close" class="sprite-symbol-usage" /><use id="comment-usage" xlink:href="#comment" class="sprite-symbol-usage" /><use id="date-usage" xlink:href="#date" class="sprite-symbol-usage" /><use id="delete-usage" xlink:href="#delete" class="sprite-symbol-usage" /><use id="done-usage" xlink:href="#done" class="sprite-symbol-usage" /><use id="edit-usage" xlink:href="#edit" class="sprite-symbol-usage" /><use id="eye-usage" xlink:href="#eye" class="sprite-symbol-usage" /><use id="forum-usage" xlink:href="#forum" class="sprite-symbol-usage" /><use id="home-usage" xlink:href="#home" class="sprite-symbol-usage" /><use id="link-usage" xlink:href="#link" class="sprite-symbol-usage" /><use id="live-help-usage" xlink:href="#live-help" class="sprite-symbol-usage" /><use id="mail-usage" xlink:href="#mail" class="sprite-symbol-usage" /><use id="menu-usage" xlink:href="#menu" class="sprite-symbol-usage" /><use id="mobile-usage" xlink:href="#mobile" class="sprite-symbol-usage" /><use id="note-off-usage" xlink:href="#note-off" class="sprite-symbol-usage" /><use id="note-on-usage" xlink:href="#note-on" class="sprite-symbol-usage" /><use id="people-usage" xlink:href="#people" class="sprite-symbol-usage" /><use id="person-usage" xlink:href="#person" class="sprite-symbol-usage" /><use id="phone-usage" xlink:href="#phone" class="sprite-symbol-usage" /><use id="place-usage" xlink:href="#place" class="sprite-symbol-usage" /><use id="question-usage" xlink:href="#question" class="sprite-symbol-usage" /><use id="reply-usage" xlink:href="#reply" class="sprite-symbol-usage" /><use id="search-usage" xlink:href="#search" class="sprite-symbol-usage" /><use id="section-menu-usage" xlink:href="#section-menu" class="sprite-symbol-usage" /><use id="share-usage" xlink:href="#share" class="sprite-symbol-usage" /><use id="star-usage" xlink:href="#star" class="sprite-symbol-usage" /><use id="time-usage" xlink:href="#time" class="sprite-symbol-usage" /><use id="warning-usage" xlink:href="#warning" class="sprite-symbol-usage" /></svg>